<svg width="27" height="45" viewBox="0 0 27 45" fill="none" xmlns="http://www.w3.org/2000/svg">
<path d="M26.925 20.9906H23.0068C21.5514 20.9906 20.264 19.983 19.9282 18.5277C19.7043 17.5761 18.8646 16.9604 17.9131 16.9604H10.7483C9.79671 16.9604 8.95709 17.6321 8.73319 18.5277C8.39734 19.983 7.10992 20.9906 5.65457 20.9906H1.73633V0H26.925V20.9906ZM10.7483 15.8409H17.9131C19.3684 15.8409 20.6558 16.8484 20.9917 18.3038C21.2156 19.2554 22.0552 19.8711 23.0068 19.8711H25.8055V1.1195H2.85583V19.8711H5.65457C6.60614 19.8711 7.44576 19.1994 7.66966 18.3038C8.00551 16.8484 9.29294 15.8409 10.7483 15.8409Z" fill="black"/>
<path d="M5.43061 44.5C4.75891 44.5 4.08721 44.3881 3.41551 44.1082C2.07212 43.5485 1.0086 42.5409 0.448847 41.1975C-0.110902 39.8541 -0.166877 38.3988 0.392872 37.0554C0.840671 35.8799 1.45639 34.8164 2.18407 33.9208C2.51992 33.529 2.85577 33.0812 3.19162 32.6893C5.82243 29.3868 8.7891 25.5805 12.7073 16.2887L13.7149 16.7365C9.6847 26.1403 6.71803 29.9466 4.03124 33.361C3.69539 33.7529 3.35954 34.1447 3.07967 34.5925C2.40797 35.4321 1.90419 36.3837 1.45639 37.4472C1.0086 38.5107 1.06457 39.6862 1.51237 40.7497C1.96017 41.8132 2.79979 42.5969 3.86331 43.0447C4.92684 43.4925 6.10231 43.4365 7.16583 42.9887C8.22935 42.5409 9.013 41.7013 9.4608 40.6378C9.96457 39.4063 10.2444 38.1749 10.3004 36.8875C10.5803 32.1856 10.9161 27.3717 15.1702 16.3447L16.2338 16.7365C12.0356 27.5956 11.6998 32.3535 11.4199 36.8875C11.308 38.3428 11.0281 39.7422 10.4683 41.0296C9.9086 42.373 8.90105 43.4365 7.55765 43.9963C6.88596 44.3321 6.15828 44.5 5.43061 44.5Z" fill="black"/>
<path d="M5.54257 42.373C5.09477 42.373 4.64698 42.261 4.19918 42.0931C3.30358 41.7573 2.57591 41.0296 2.18408 40.134C1.79226 39.2384 1.79226 38.2308 2.12811 37.3353C2.68786 35.9359 4.03125 35.0403 5.4866 35.0403C5.9344 35.0403 6.3822 35.1522 6.83 35.3202C8.67717 36.0478 9.57276 38.1749 8.84509 40.022C8.39729 41.4774 7.05389 42.373 5.54257 42.373ZM5.54257 36.2158C4.53503 36.2158 3.58345 36.8315 3.19163 37.7831C2.96773 38.3988 2.96773 39.0705 3.19163 39.6862C3.4715 40.3019 3.9193 40.8057 4.591 41.0296C4.87088 41.1415 5.20672 41.1975 5.54257 41.1975C6.55012 41.1975 7.50169 40.5818 7.89352 39.6302C8.39729 38.3428 7.78157 36.8875 6.49415 36.3837C6.21427 36.2717 5.87842 36.2158 5.54257 36.2158Z" fill="black"/>
<path d="M26.3661 4.75787H2.29688V5.87737H26.3661V4.75787Z" fill="black"/>
<path d="M26.3661 6.71698H2.29688V7.83648H26.3661V6.71698Z" fill="black"/>
</svg>
