<svg width="61" height="46" viewBox="0 0 61 46" fill="none" xmlns="http://www.w3.org/2000/svg">
<path d="M59.3 45.1H51.8C51.2 45.1 50.8 44.7 50.8 44.1V38.9H9.5V44.1C9.5 44.7 9.1 45.1 8.5 45.1H1C0.4 45.1 0 44.7 0 44.1V21.8C0 21.6 0.1 21.3 0.2 21.2L5.1 15.5L9.1 0.8C9.2 0.3 9.6 0 10.1 0H49.5C50 0 50.3 0.3 50.5 0.7L54.5 15.4L60.1 21.1C60.3 21.3 60.4 21.5 60.4 21.8V44.1C60.3 44.7 59.9 45.1 59.3 45.1ZM52.8 43.1H58.3V22.2L52.8 16.6C52.7 16.5 52.6 16.3 52.6 16.2L48.7 2H10.9L7 16.2C7 16.3 6.9 16.5 6.8 16.6L2 22.2V43.2H7.5V38C7.5 37.4 7.9 37 8.5 37H51.8C52.4 37 52.8 37.4 52.8 38V43.1Z" fill="black"/>
<path d="M53.6004 16.9H6.40039C5.80039 16.9 5.40039 16.5 5.40039 15.9C5.40039 15.3 5.80039 14.9 6.40039 14.9H53.5004C54.1004 14.9 54.5004 15.3 54.5004 15.9C54.6004 16.5 54.1004 16.9 53.6004 16.9Z" fill="black"/>
<path d="M51.8992 31.3C49.5992 31.3 47.6992 29.4 47.6992 27.1C47.6992 24.8 49.5992 22.9 51.8992 22.9C54.1992 22.9 56.0992 24.8 56.0992 27.1C56.0992 29.5 54.1992 31.3 51.8992 31.3ZM51.8992 25C50.6992 25 49.6992 26 49.6992 27.2C49.6992 28.4 50.6992 29.4 51.8992 29.4C53.0992 29.4 54.0992 28.4 54.0992 27.2C54.0992 26 53.0992 25 51.8992 25Z" fill="black"/>
<path d="M8.10039 31.3C5.80039 31.3 3.90039 29.4 3.90039 27.1C3.90039 24.8 5.80039 22.9 8.10039 22.9C10.4004 22.9 12.3004 24.8 12.3004 27.1C12.2004 29.5 10.3004 31.3 8.10039 31.3ZM8.10039 25C6.90039 25 5.90039 26 5.90039 27.2C5.90039 28.4 6.90039 29.4 8.10039 29.4C9.30039 29.4 10.3004 28.4 10.3004 27.2C10.2004 26 9.20039 25 8.10039 25Z" fill="black"/>
<path d="M45.0992 28.2H15.1992C14.5992 28.2 14.1992 27.8 14.1992 27.2C14.1992 26.6 14.5992 26.2 15.1992 26.2H45.0992C45.6992 26.2 46.0992 26.6 46.0992 27.2C46.0992 27.7 45.5992 28.2 45.0992 28.2Z" fill="black"/>
</svg>
