<svg width="40" height="50" viewBox="0 0 40 50" fill="none" xmlns="http://www.w3.org/2000/svg">
<path d="M16.7273 29C16.4818 29 16.3182 28.9188 16.1545 28.7563L11.2455 23.8813C10.9182 23.5563 10.9182 23.0687 11.2455 22.7437C11.5727 22.4187 12.0636 22.4187 12.3909 22.7437L16.7273 27.05L27.6091 16.2438C27.9364 15.9188 28.4273 15.9188 28.7545 16.2438C29.0818 16.5688 29.0818 17.0562 28.7545 17.3812L17.3 28.7563C17.1364 28.9188 16.9727 29 16.7273 29Z" fill="black"/>
<path d="M38.2 6C38.1 6 28.1 5.7 21.2 0.4C20.8 0.1 20.4 0 20 0C19.6 0 19.2 0.1 18.9 0.4C12 5.8 1.9 6 1.8 6C0.8 6.1 0 7 0 8V22C0 41.1 18.4 49.5 19.2 49.8C19.5 49.9 19.7 50 20 50C20.3 50 20.6 49.9 20.8 49.8C21.6 49.5 40 41.1 40 22V8C40 7 39.2 6.1 38.2 6ZM38.1 22C38.1 39.9 20.8 47.8 20 48.1C20 48.1 20 48.1 19.9 48.1C19.2 47.8 1.9 39.9 1.9 22V8C1.9 8 1.9 7.9 2 7.9C3.9 7.8 13.3 7.1 20 1.9C26.7 7.1 36 7.8 38 7.9L38.1 8V22Z" fill="black"/>
</svg>
