<svg width="35" height="35" viewBox="0 0 35 35" fill="none" xmlns="http://www.w3.org/2000/svg">
<path d="M17.5 3.16265C22.1386 3.16265 22.7711 3.16265 24.6687 3.16265C26.3554 3.16265 27.1988 3.58434 27.8313 3.79518C28.6747 4.21687 29.3072 4.42771 29.9398 5.06024C30.5723 5.69277 30.994 6.3253 31.2048 7.16868C31.4157 7.80121 31.6265 8.64458 31.8374 10.3313C31.8374 12.2289 31.8374 12.6506 31.8374 17.5C31.8374 22.3494 31.8374 22.7711 31.8374 24.6687C31.8374 26.3554 31.4157 27.1988 31.2048 27.8313C30.7831 28.6747 30.5723 29.3072 29.9398 29.9398C29.3072 30.5723 28.6747 30.994 27.8313 31.2048C27.1988 31.4157 26.3554 31.6265 24.6687 31.8374C22.7711 31.8374 22.3494 31.8374 17.5 31.8374C12.6506 31.8374 12.2289 31.8374 10.3313 31.8374C8.64458 31.8374 7.80121 31.4157 7.16868 31.2048C6.3253 30.7831 5.69277 30.5723 5.06024 29.9398C4.42771 29.3072 4.00602 28.6747 3.79518 27.8313C3.58434 27.1988 3.37349 26.3554 3.16265 24.6687C3.16265 22.7711 3.16265 22.3494 3.16265 17.5C3.16265 12.6506 3.16265 12.2289 3.16265 10.3313C3.16265 8.64458 3.58434 7.80121 3.79518 7.16868C4.21687 6.3253 4.42771 5.69277 5.06024 5.06024C5.69277 4.42771 6.3253 4.00602 7.16868 3.79518C7.80121 3.58434 8.64458 3.37349 10.3313 3.16265C12.2289 3.16265 12.8614 3.16265 17.5 3.16265ZM17.5 0C12.6506 0 12.2289 0 10.3313 0C8.43374 0 7.16868 0.421688 6.11446 0.843375C5.06024 1.26506 4.00603 1.89759 2.95181 2.95181C1.89759 4.00603 1.47591 4.8494 0.843375 6.11446C0.421688 7.16868 0.210843 8.43374 0 10.3313C0 12.2289 0 12.8614 0 17.5C0 22.3494 0 22.7711 0 24.6687C0 26.5663 0.421688 27.8313 0.843375 28.8855C1.26506 29.9398 1.89759 30.994 2.95181 32.0482C4.00603 33.1024 4.8494 33.5241 6.11446 34.1566C7.16868 34.5783 8.43374 34.7892 10.3313 35C12.2289 35 12.8614 35 17.5 35C22.1386 35 22.7711 35 24.6687 35C26.5663 35 27.8313 34.5783 28.8855 34.1566C29.9398 33.7349 30.994 33.1024 32.0482 32.0482C33.1024 30.994 33.5241 30.1506 34.1566 28.8855C34.5783 27.8313 34.7892 26.5663 35 24.6687C35 22.7711 35 22.1386 35 17.5C35 12.8614 35 12.2289 35 10.3313C35 8.43374 34.5783 7.16868 34.1566 6.11446C33.7349 5.06024 33.1024 4.00603 32.0482 2.95181C30.994 1.89759 30.1506 1.47591 28.8855 0.843375C27.8313 0.421688 26.5663 0.210843 24.6687 0C22.7711 0 22.3494 0 17.5 0Z" fill="white"/>
<path d="M17.5 8.43374C12.4398 8.43374 8.43374 12.4398 8.43374 17.5C8.43374 22.5602 12.4398 26.5663 17.5 26.5663C22.5602 26.5663 26.5663 22.5602 26.5663 17.5C26.5663 12.4398 22.5602 8.43374 17.5 8.43374ZM17.5 23.4036C14.3374 23.4036 11.5964 20.8735 11.5964 17.5C11.5964 14.3374 14.1265 11.5964 17.5 11.5964C20.6627 11.5964 23.4036 14.1265 23.4036 17.5C23.4036 20.6627 20.6627 23.4036 17.5 23.4036Z" fill="white"/>
<path d="M26.7771 10.3313C27.9416 10.3313 28.8855 9.38735 28.8855 8.22289C28.8855 7.05844 27.9416 6.11446 26.7771 6.11446C25.6127 6.11446 24.6687 7.05844 24.6687 8.22289C24.6687 9.38735 25.6127 10.3313 26.7771 10.3313Z" fill="white"/>
</svg>
