<svg width="181" height="56" viewBox="0 0 181 56" fill="none" xmlns="http://www.w3.org/2000/svg">
<path d="M82.5214 34.3179H74.1734V30.3598H95.5471V34.3179H87.1992V55.5477H82.5214V34.3179Z" fill="white"/>
<path d="M106.62 55.9075C104.677 55.9075 102.794 55.6316 100.971 55.0799C99.1715 54.5282 97.7442 53.7965 96.6887 52.885L98.308 49.2507C99.3395 50.0663 100.599 50.738 102.086 51.2657C103.597 51.7695 105.109 52.0214 106.62 52.0214C108.491 52.0214 109.882 51.7215 110.794 51.1218C111.729 50.5221 112.197 49.7305 112.197 48.747C112.197 48.0273 111.933 47.4396 111.406 46.9838C110.902 46.504 110.254 46.1322 109.463 45.8683C108.671 45.6045 107.591 45.3046 106.224 44.9688C104.305 44.513 102.746 44.0572 101.546 43.6014C100.371 43.1457 99.3514 42.438 98.4879 41.4785C97.6483 40.4949 97.2285 39.1756 97.2285 37.5204C97.2285 36.129 97.6003 34.8697 98.3439 33.7422C99.1116 32.5907 100.251 31.6792 101.762 31.0075C103.298 30.3358 105.169 30 107.376 30C108.911 30 110.422 30.1919 111.909 30.5757C113.397 30.9595 114.68 31.5113 115.76 32.2309L114.284 35.8652C113.181 35.2175 112.029 34.7257 110.83 34.3899C109.63 34.054 108.467 33.8861 107.34 33.8861C105.492 33.8861 104.113 34.198 103.202 34.8217C102.314 35.4454 101.87 36.273 101.87 37.3045C101.87 38.0241 102.122 38.6118 102.626 39.0676C103.154 39.5234 103.813 39.8832 104.605 40.1471C105.397 40.411 106.476 40.7108 107.843 41.0467C109.714 41.4785 111.25 41.9342 112.449 42.414C113.649 42.8698 114.668 43.5774 115.508 44.537C116.371 45.4965 116.803 46.7919 116.803 48.4231C116.803 49.8144 116.419 51.0738 115.652 52.2013C114.908 53.3288 113.769 54.2283 112.233 54.9C110.698 55.5717 108.827 55.9075 106.62 55.9075Z" fill="white"/>
<path d="M150.5 0L134.692 55.5477H128.89L117.879 30.3598H122.953L131.337 49.7905L144 6.5L150.5 0Z" fill="white"/>
<path d="M147.128 30.3598H151.806V55.5477H147.128V30.3598Z" fill="white"/>
<path d="M181 30.3598V55.5477H177.15L163.261 38.4919V55.5477H158.619V30.3598H162.469L176.358 47.4156V30.3598H181Z" fill="white"/>
<path d="M67.924 55.5477L62.7785 48.1712C62.5626 48.1952 62.2387 48.2072 61.8069 48.2072H56.1217V55.5477H51.4439V44.3571H56.1217H61.591C63.6301 44.3571 65.1773 43.9253 66.2328 43.0617C67.2883 42.1741 67.816 40.9267 67.816 39.3195C67.816 37.7123 67.2883 36.4769 66.2328 35.6133C65.1773 34.7497 63.6301 34.3179 61.591 34.3179H56.1217H51.4439V30.3598H61.8069C63.9899 30.3598 65.885 30.7197 67.4922 31.4393C69.1234 32.159 70.3708 33.1905 71.2344 34.5338C72.098 35.8772 72.5298 37.4724 72.5298 39.3195C72.5298 41.2146 72.062 42.8458 71.1264 44.2131C70.2149 45.5805 68.8955 46.6 67.1684 47.2717L72.9616 55.5477H67.924Z" fill="white"/>
<path d="M28.2343 49.7185L25.7515 55.5477H20.9298L32.2643 30.3598H36.8701L48.2406 55.5477H43.347L40.8282 49.7185L39.281 46.0483L34.5312 35.0376L29.8175 46.0483L28.2343 49.7185Z" fill="white"/>
<path fill-rule="evenodd" clip-rule="evenodd" d="M21.0525 33.5L11.5262 28L3 32.5L1.99994 44.5L11.5262 50L21.0525 44.5V33.5ZM11.5262 44.9715C14.8242 44.9715 17.4977 42.298 17.4977 39.0001C17.4977 35.7021 14.8242 33.0286 11.5262 33.0286C10.1258 33.0286 8.83801 33.5107 7.81968 34.3179C6.43985 35.4117 5.55479 37.1025 5.55479 39.0001C5.55479 41.375 6.94124 43.4261 8.9489 44.3882C9.72915 44.7621 10.6032 44.9715 11.5262 44.9715Z" fill="white"/>
<path fill-rule="evenodd" clip-rule="evenodd" d="M16.0483 31.4393C14.441 30.7197 12.5459 30.3598 10.363 30.3598L3 32.5H0V55.5477H4.67774V48.2792V44.3211V34.3179H7.81968C8.83801 33.5107 10.1258 33.0286 11.5262 33.0286C14.8242 33.0286 17.4977 35.7021 17.4977 39.0001C17.4977 42.298 14.8242 44.9715 11.5262 44.9715C10.6032 44.9715 9.72915 44.7621 8.9489 44.3882V48.2792H10.363C12.5459 48.2792 14.441 47.9194 16.0483 47.1997C17.6795 46.4801 18.9269 45.4486 19.7905 44.1052C20.654 42.7379 21.0858 41.1426 21.0858 39.3195C21.0858 37.4724 20.654 35.8772 19.7905 34.5338C18.9269 33.1905 17.6795 32.159 16.0483 31.4393Z" fill="white"/>
<path d="M0 32.5H3V30.3598H0V32.5Z" fill="white"/>
</svg>
