<svg width="31" height="32" viewBox="0 0 31 32" fill="none" xmlns="http://www.w3.org/2000/svg">
<path d="M30.6567 27.4956L30.6456 27.518C30.025 28.6491 29.2049 29.7017 28.1633 30.6872L28.1411 30.7096C26.778 31.8854 25.4482 32.2549 24.1738 31.8294C19.2424 29.8249 14.2445 26.9133 9.63446 22.0756C4.96901 17.1707 1.83286 11.6611 0.214912 6.49862L0.0486852 5.74832C-0.261606 3.86699 0.890904 2.61277 4.09355 0.429082L4.14896 0.38429C5.25714 -0.310011 6.36532 0.03714 7.07456 0.630655C7.73947 1.10099 9.59013 3.58703 9.59013 3.58703C9.95583 4.14695 12.5047 7.3273 11.9173 8.86148C11.7178 9.73496 10.2218 10.6644 9.41282 11.4259L9.34633 11.4819C9.0028 12.0642 8.86981 12.445 8.98063 13.296L9.01388 13.4304C9.43499 15.4909 10.6097 17.4731 12.549 19.3656C14.4661 21.2469 16.35 22.3555 18.1121 22.8035C18.3559 22.8595 19.2978 22.9827 19.9184 22.1988L21.1152 20.6422C21.6915 19.8695 23.0878 19.3768 24.4509 20.1607C25.2155 20.6086 26.5675 21.4709 27.4208 22.1204C28.3295 22.8035 30.1802 24.4049 30.1802 24.4049C31.0556 25.1776 31.2551 26.2974 30.6567 27.4956Z" fill="white"/>
</svg>
