<svg width="37" height="37" viewBox="0 0 37 37" fill="none" xmlns="http://www.w3.org/2000/svg">
<path d="M18.5 0C8.28337 0 0 8.28337 0 18.5C0 28.7166 8.28337 37 18.5 37C28.7166 37 37 28.7166 37 18.5C37 8.28337 28.7166 0 18.5 0ZM27.5866 12.674L24.5495 26.9807C24.326 27.9951 23.7216 28.2418 22.8783 27.7639L18.2533 24.3568L16.0241 26.5059C15.9149 26.6473 15.7747 26.7618 15.6144 26.8406C15.454 26.9194 15.2778 26.9605 15.0991 26.9607H15.0914L15.4197 22.2524L23.9914 14.5102C24.3614 14.1818 23.9082 13.9952 23.4164 14.3236L12.8267 20.9929L8.26333 19.5684C7.27667 19.2554 7.24892 18.5817 8.47146 18.0976L26.3024 11.2249C27.1318 10.9227 27.8533 11.4222 27.585 12.6756L27.5866 12.674Z" fill="white"/>
</svg>
