<svg width="35" height="38" viewBox="0 0 35 38" fill="none" xmlns="http://www.w3.org/2000/svg">
<path d="M23.1442 16.2274C23.1773 14.6941 22.7332 13.4008 21.825 12.3808C21.3742 11.8674 20.824 11.4675 20.1876 11.1808C19.5513 10.8941 18.8088 10.7208 17.9868 10.6541C17.8675 10.6475 17.7747 10.5341 17.7813 10.4141C17.7879 10.2875 17.894 10.1941 18.0133 10.2008C19.77 10.3341 21.1621 10.9608 22.1432 12.0741C23.1309 13.1874 23.6149 14.5874 23.5817 16.2408C23.5751 16.3674 23.4823 16.4608 23.363 16.4608H23.3563C23.237 16.4608 23.1376 16.3541 23.1442 16.2274ZM17.0322 8.1608C17.0322 8.03413 17.1316 7.93413 17.251 7.93413C19.6639 7.95413 21.7057 8.78746 23.3364 10.4141C24.1518 11.2341 24.775 12.2141 25.186 13.3341C25.597 14.4474 25.8091 15.7208 25.8223 17.1274C25.8223 17.2541 25.7229 17.3541 25.6036 17.3541C25.4843 17.3541 25.3848 17.2541 25.3848 17.1274C25.3716 15.7741 25.1727 14.5474 24.7816 13.4874C24.3905 12.4341 23.8071 11.5075 23.0381 10.7341C22.2692 9.96079 21.3941 9.37412 20.4395 8.98079C19.4783 8.58746 18.4111 8.38746 17.2642 8.38079C17.125 8.38746 17.0322 8.28746 17.0322 8.1608ZM18.6563 12.5541C19.5181 12.6008 20.181 12.8741 20.645 13.3674C21.1025 13.8541 21.361 14.5674 21.4008 15.4741C21.4074 15.6008 21.3146 15.7074 21.1886 15.7141H21.1754C21.056 15.7141 20.9632 15.6208 20.9566 15.5008C20.9168 14.7008 20.7047 14.0941 20.3202 13.6874C19.9424 13.2808 19.3656 13.0541 18.6232 13.0141C18.5039 13.0074 18.4111 12.9008 18.4177 12.7741C18.4309 12.6408 18.537 12.5474 18.6563 12.5541ZM26.061 24.2874L26.0544 24.3007C25.6831 24.9741 25.1926 25.6007 24.5694 26.1874L24.5562 26.2007C23.7408 26.9007 22.9453 27.1207 22.183 26.8674C19.2331 25.6741 16.2434 23.9407 13.4857 21.0608C10.6948 18.1408 8.81881 14.8608 7.85097 11.7874L7.75153 11.3408C7.56592 10.2208 8.25534 9.47412 10.1711 8.17413L10.2043 8.14746C10.8672 7.73413 11.5301 7.9408 11.9544 8.29413C12.3521 8.57413 13.4591 10.0541 13.4591 10.0541C13.6779 10.3875 15.2026 12.2808 14.8513 13.1941C14.7319 13.7141 13.837 14.2674 13.3531 14.7208L13.3133 14.7541C13.1078 15.1008 13.0283 15.3274 13.0946 15.8341L13.1144 15.9141C13.3663 17.1408 14.069 18.3208 15.2291 19.4474C16.3759 20.5674 17.5029 21.2274 18.5569 21.4941C18.7027 21.5274 19.2662 21.6008 19.6374 21.1341L20.3534 20.2074C20.6981 19.7474 21.5333 19.4541 22.3487 19.9208C22.8061 20.1874 23.6149 20.7008 24.1253 21.0874C24.6689 21.4941 25.7759 22.4474 25.7759 22.4474C26.2996 22.9074 26.419 23.5741 26.061 24.2874ZM31.0527 3.70081C30.1379 2.83415 26.4322 0.0608224 18.1724 0.0274892C18.1724 0.0274892 8.44095 -0.579177 3.69455 3.90747C1.05619 6.62747 0.121488 10.6075 0.0220517 15.5408C-0.0773842 20.4741 -0.203337 29.7274 8.45421 32.2341H8.46084L8.45421 36.0607C8.45421 36.0607 8.40118 37.614 9.38891 37.9274C10.5888 38.3074 11.2914 37.134 12.4383 35.8607C13.068 35.1674 13.9298 34.1407 14.5861 33.3607C20.5058 33.874 25.0666 32.7007 25.5771 32.5274C26.7703 32.1274 33.5386 31.2341 34.639 21.9874C35.7858 12.4474 34.0954 6.4208 31.0527 3.70081ZM32.0735 21.2941C31.1455 29.0141 25.6566 29.5074 24.649 29.8407C24.2181 29.9807 20.2142 31.0074 15.1893 30.6674L9.73362 36.7474L9.72699 29.7474L9.68722 29.7341C2.36211 27.6407 2.60738 19.7874 2.69356 15.6608C2.77974 11.5341 3.52882 8.1608 5.76281 5.88747C9.77339 2.14082 18.0465 2.70081 18.0465 2.70081C25.0269 2.73415 28.3745 4.89414 29.1501 5.6208C31.7222 7.9008 33.0348 13.3341 32.0735 21.2941Z" fill="white"/>
</svg>
