<svg width="232" height="303" viewBox="0 0 232 303" fill="none" xmlns="http://www.w3.org/2000/svg">
<path d="M0 49.3546H32.9337V25.8818H0V49.3546Z" fill="black"/>
<path fill-rule="evenodd" clip-rule="evenodd" d="M51.3518 302.134V222.416V197.923L126.534 241.289L231.112 180.967V60.3223L126.534 0L32.9337 49.3546H0V302.134H51.3518ZM126.534 186.138C162.738 186.138 192.087 156.816 192.087 120.645C192.087 84.4745 162.738 55.1524 126.534 55.1524C111.16 55.1524 97.0228 60.4394 85.8437 69.2929C70.696 81.2893 60.9799 99.8336 60.9799 120.645C60.9799 146.693 76.2002 169.189 98.2402 179.74C106.806 183.841 116.401 186.138 126.534 186.138Z" fill="black"/>
</svg>
